<svg width="90" height="87" viewBox="0 0 90 87" fill="none" xmlns="http://www.w3.org/2000/svg">
<path d="M83.2688 50.6C83.3688 50.7 83.4688 50.8 83.4688 50.9C83.5687 51 83.5687 51.1 83.6687 51.2C83.7687 51.3 83.7688 51.4 83.7688 51.6C83.7688 51.7 83.7688 51.9 83.7688 52C83.7688 52.5 83.5687 53 83.1687 53.4C82.7687 53.8 82.2688 54 81.7688 54C81.2688 54 80.7688 53.8 80.3688 53.4C79.9688 53 79.7688 52.5 79.7688 52C79.7688 51.9 79.7688 51.7 79.7688 51.6C79.7688 51.5 79.8688 51.3 79.8688 51.2C79.8688 51.1 79.9688 51 80.0687 50.9C80.1687 50.8 80.2688 50.7 80.2688 50.6C81.1688 49.9 82.5688 49.9 83.2688 50.6ZM55.1688 34H58.1688H60.1687C60.6687 34 61.1687 34.5 61.1687 35C61.1687 36.1 62.0687 37 63.1687 37C64.2687 37 65.1687 36.1 65.1687 35C65.1687 32.2 62.9687 30 60.1687 30V28C60.1687 26.9 59.2687 26 58.1688 26C57.0688 26 56.1688 26.9 56.1688 28V30H55.1688C52.3688 30 50.1688 32.2 50.1688 35V38C50.1688 40.6 52.1688 42.8 54.7687 43C54.8687 43 55.0688 43 55.1688 43H60.1687C60.6687 43 61.1687 43.5 61.1687 44V47C61.1687 47.5 60.6687 48 60.1687 48H58.1688H55.1688C54.6688 48 54.1688 47.5 54.1688 47C54.1688 45.9 53.2687 45 52.1688 45C51.0688 45 50.1688 45.9 50.1688 47C50.1688 49.8 52.3688 52 55.1688 52H56.1688V54C56.1688 55.1 57.0688 56 58.1688 56C59.2687 56 60.1687 55.1 60.1687 54V52C62.9687 52 65.1687 49.8 65.1687 47V44C65.1687 41.4 63.1687 39.2 60.5687 39C60.4688 39 60.2687 39 60.1687 39H55.1688C54.6688 39 54.1688 38.5 54.1688 38V35C54.0688 34.5 54.5688 34 55.1688 34ZM86.7688 68.5L65.3688 81.4C62.7688 83 60.1688 84.3 57.4688 85.3C55.5687 86.1 54.8688 86.2 54.3688 86.3H54.0687C53.5687 86.4 53.0687 86.4 52.4688 86.4C50.8688 86.4 48.6688 85.9 44.1688 83.8C37.8688 81 31.1687 78.3 31.0687 78.3L30.8688 78.2L30.6688 78C30.6688 78 28.3687 76.6 23.4688 79C19.5688 80.9 15.2687 83.1 12.2687 84.7C11.0687 85.3 9.76875 85.4 8.46875 84.9C7.26875 84.4 6.36875 83.4 5.96875 82.1L0.16875 63.5C-0.13125 62.4 -0.0312499 61.2 0.46875 60.1C1.06875 59.1 1.96875 58.3 3.06875 57.9L23.2687 51.7C25.9688 50.9 28.6688 50.4 31.1688 50.3H31.3688V42.6C31.3688 31.6 39.1687 22.4 49.5687 20.3V16L49.4688 15.9L44.4688 8.5C44.4688 8.5 44.4688 8.4 44.3688 8.4C44.3688 8.3 44.2687 8.3 44.2687 8.2C44.2687 8.1 44.2687 8.1 44.1688 8C44.0688 7.9 44.1687 7.9 44.0687 7.8C44.0687 7.7 44.0687 7.7 44.0687 7.6C44.0687 7.5 44.0687 7.5 44.0687 7.4C44.0687 7.3 44.0687 7.3 44.0687 7.2C44.0687 7.1 44.0687 7.1 44.0687 7C44.0687 6.9 44.0687 6.9 44.0687 6.8C44.0687 6.7 44.0688 6.7 44.1688 6.6C44.1688 6.5 44.2687 6.5 44.2687 6.4C44.2687 6.3 44.2688 6.3 44.3688 6.2C44.3688 6.1 44.4688 6 44.5687 6C44.5687 6 44.5688 5.9 44.6688 5.9L49.6688 0.6C49.7687 0.5 49.7688 0.5 49.8688 0.4L49.9688 0.3C50.0687 0.3 50.0688 0.2 50.1688 0.2C50.1688 0.2 50.2687 0.2 50.2687 0.1C50.3687 0.1 50.3688 0.1 50.4688 0C50.5687 0 50.5688 0 50.6688 0C50.7687 0 50.7688 0 50.8688 0C50.9688 0 50.9688 0 51.0687 0C51.1687 0 51.1688 0 51.2687 0C51.3687 0 51.3688 0 51.4688 0C51.5687 0 51.5688 0 51.6688 0C51.7687 0 51.7688 3.7998e-07 51.8688 0.1C51.8688 0.3 51.9688 0.3 51.9688 0.3C52.0687 0.3 52.0688 0.4 52.1688 0.4L57.5687 3.9L62.9688 0.4C63.0687 0.4 63.1688 0.3 63.2688 0.3H63.3688C63.4688 0.3 63.5687 0.3 63.6687 0.2H63.7688C63.8688 0.2 63.9688 0.2 64.0687 0.2H64.1687C64.2687 0.2 64.3688 0.2 64.4688 0.2H64.5687C64.6687 0.2 64.7688 0.2 64.7688 0.3H64.8688C64.9688 0.3 64.9688 0.3 65.0687 0.4C65.1687 0.4 65.1688 0.5 65.2688 0.5L65.3688 0.6C65.4688 0.6 65.4688 0.7 65.5687 0.8L70.5687 6.1C70.5687 6.1 70.5687 6.1 70.5687 6.2C70.6687 6.3 70.6688 6.3 70.7688 6.4C70.7688 6.4 70.7688 6.5 70.8688 6.5C70.8688 6.6 70.9688 6.6 70.9688 6.7C70.9688 6.8 70.9688 6.8 71.0687 6.9C71.0687 7 71.0687 7 71.0687 7.1C71.0687 7.2 71.0687 7.2 71.0687 7.3C71.0687 7.4 71.0687 7.4 71.0687 7.5C71.0687 7.6 71.0687 7.6 71.0687 7.7C71.0687 7.8 71.0687 7.8 71.0687 7.9C71.0687 8 71.0687 8 71.0687 8.1C71.0687 8.2 71.0687 8.2 70.9688 8.3C70.9688 8.4 70.8688 8.4 70.8688 8.5C70.8688 8.5 70.8688 8.6 70.7688 8.6L65.7688 16L65.6687 16.1V20.5C75.8687 22.8 83.4688 31.9 83.4688 42.7V46C83.4688 47.1 82.5687 48 81.4688 48C80.3688 48 79.4688 47.1 79.4688 46V42.7C79.4688 32.4 71.0687 23.9 60.6687 23.9H54.1688C43.7688 23.9 35.3688 32.3 35.3688 42.7V50.7C35.8688 50.8 36.4688 50.9 36.8688 51.1C40.7688 52.4 45.2687 54.9 46.0687 55.3L49.9688 57C50.0687 57 52.9688 58.3 56.0687 57.5C58.7687 56.8 61.4688 57.8 63.7688 60.4C64.0688 60.7 64.2688 61.1 64.4688 61.4L82.5687 55.9H82.7688C84.9688 55.8 89.3688 56.7 89.7688 61.2C90.2688 65.2 88.0688 67.7 86.7688 68.5ZM61.6687 16H53.6688V20H61.6687V16ZM51.6688 12H63.6687L66.6687 7.6L63.8688 4.7L58.7687 8C58.7687 8 58.7687 8 58.6688 8C58.5688 8.1 58.4688 8.1 58.3688 8.2C58.2688 8.2 58.2687 8.2 58.1688 8.3C57.9688 8.3 57.7687 8.3 57.6688 8.3C57.4688 8.3 57.3688 8.3 57.1688 8.2C57.1688 8.2 57.0687 8.2 56.9688 8.1C56.8688 8.1 56.7687 8 56.6688 7.9C56.6688 7.9 56.6687 7.9 56.5687 7.9L51.4688 4.6L48.6688 7.5L51.6688 12ZM85.9688 61.6C85.8688 60 83.9688 59.9 83.3688 59.9L65.3688 65.4C65.2688 65.7 65.1687 66.1 65.0687 66.4C64.5687 67.6 62.5687 69.2 62.4688 69.2C60.5687 70.6 57.8688 71.5 57.4688 71.7C56.7687 72 52.7687 73.4 49.4688 72.7C46.4688 72 40.0688 69.6 39.8688 69.5C38.8688 69.1 38.3688 68 38.6688 66.9C39.0688 65.9 40.1688 65.3 41.2687 65.7C41.3687 65.7 47.5688 68.1 50.3688 68.7C52.2688 69.1 55.0687 68.2 56.0687 67.9H56.1688C56.1688 67.9 58.6687 67.1 60.1687 66C60.5687 65.7 61.2687 65.1 61.5687 64.8C61.5687 64.7 61.5687 64.6 61.6687 64.5C61.5687 64.3 61.5687 64.1 61.5687 63.9C61.4688 63.6 61.3687 63.3 61.0687 63.1C60.1687 62.1 58.8688 61 57.4688 61.4C52.8688 62.6 48.8688 60.8 48.6688 60.7L44.4688 58.9C44.4688 58.9 39.7687 56.2 35.9688 54.9C34.8688 54.5 33.3687 54.4 31.5687 54.4C29.3687 54.5 27.0688 54.9 24.6688 55.6L4.26875 61.8C4.06875 61.8 4.06875 61.9 3.96875 62C3.96875 62.1 3.96875 62.2 3.96875 62.3L9.66875 80.8C9.66875 81 9.86875 81 9.86875 81.1C9.96875 81.1 10.0688 81.2 10.2688 81.1C13.2688 79.5 17.6688 77.3 21.5688 75.3C27.9688 72.2 31.6687 73.9 32.7687 74.5C33.8687 75 40.0688 77.5 45.8688 80.1C51.3688 82.6 52.3687 82.4 53.5687 82.2H53.8688C53.9688 82.2 54.3687 82.1 56.0687 81.5C58.4688 80.5 60.9688 79.3 63.3688 77.9L84.6687 65C84.7687 65 86.1687 64 85.9688 61.6Z" fill="#EB9D76"/>
</svg>
